# xmcd
#
# Track frame offsets:
#	150
#	2744
#	15682
#	31400
#	45424
#	57197
#	70972
#	81031
#	92842
#	101994
#	113475
#	127312
#	138149
#	148155
#	163422
#	180252
#
# Disc length: 2603 seconds
#
# Revision: 1
# Processed by: cddbd v1.5.1PL0 Copyright (c) Steve Scherf et al.
# Submitted via: audiograbber 1.83.01
#
DISCID=d80a2910
DTITLE=Tina Rauch - Live in Concert
DYEAR=2001
DGENRE=Contemporar
TTITLE0=Introduce
TTITLE1=Carry it On
TTITLE2=Grandpa
TTITLE3=Rocky Top
TTITLE4=Your Cheating Heart
TTITLE5=Nobody Knows
TTITLE6=Except for Monday
TTITLE7=Navajo Trail
TTITLE8=Jambalaya
TTITLE9=If you were A Carpenter
TTITLE10=Land where no Cabins Fall
TTITLE11=Cotton Fields
TTITLE12=Rolling in My...
TTITLE13=Sweetest Gift
TTITLE14=Love Can Build A Bridge
TTITLE15=Amanzing Grace
EXTD=
EXTT0=
EXTT1=
EXTT2=
EXTT3=
EXTT4=
EXTT5=
EXTT6=
EXTT7=
EXTT8=
EXTT9=
EXTT10=
EXTT11=
EXTT12=
EXTT13=
EXTT14=
EXTT15=
PLAYORDER=
